<svg width="150" height="150" version="1.1" xmlns="http://www.w3.org/2000/svg" desc="Created with imagetracer.js version 1.2.6" ><path fill="rgb(255,255,255)" stroke="rgb(255,255,255)" stroke-width="1" opacity="1" d="M 0 0 L 150 0 L 150 150 L 0 150 L 0 0 Z M 76 8 L 76 9 Q 78 8 77 11 L 76 14 L 74 14 L 76 13 L 75 12 L 75 11 L 75 9 L 72 10 L 73 15 L 72 16 Q 66 15 65 17 L 59 16 L 59 18 L 58 18 L 56 22 Q 57 26 53 24 L 53 40 L 54 41 L 54 72 L 51 72 L 51 80 L 56 80 L 56 83 L 61 84 L 56 86 Q 57 89 54 88 L 54 96 L 53 97 Q 51 103 54 105 L 54 112 L 51 112 L 51 116 L 60 119 L 67 117 L 68 120 L 68 119 L 70 119 L 73 117 L 76 119 L 76 117 L 81 122 L 80 124 L 81 125 L 85 124 L 85 123 Q 82 124 83 121 L 87 122 L 88 123 L 87 121 L 89 120 L 91 120 Q 93 121 92 119 L 95 120 Q 97 121 96 118 L 94 118 L 97 116 L 100 117 Q 102 116 100 115 L 110 108 L 112 104 L 117 102 Q 116 99 119 98 L 119 96 L 124 96 L 124 95 L 121 94 L 123 94 L 122 92 L 123 89 Q 126 88 125 91 L 127 92 L 126 88 L 124 88 L 127 81 L 128 83 L 128 78 L 128 76 L 127 73 L 128 71 L 127 71 L 124 70 L 123 68 Q 122 62 126 61 L 127 64 L 128 64 L 127 61 L 128 57 L 128 55 L 126 50 L 127 48 L 127 50 L 128 50 L 128 47 Q 125 48 126 45 L 128 45 L 127 41 L 122 40 L 121 38 L 122 36 L 123 39 L 125 39 Q 124 41 127 40 L 126 37 L 128 37 L 125 32 L 123 33 L 125 36 L 125 37 L 122 32 L 120 35 L 120 34 Q 121 30 119 31 L 119 33 L 117 30 L 119 30 L 120 30 L 119 27 L 116 28 L 114 29 L 115 27 Q 114 24 113 26 L 111 24 L 102 18 L 103 16 L 103 18 L 105 18 L 103 14 Q 104 11 102 12 L 102 14 L 102 15 L 100 14 L 101 17 L 99 16 L 97 14 L 98 12 L 95 14 L 95 13 L 94 12 L 94 11 Q 98 10 100 12 L 101 12 L 99 10 L 99 8 Q 96 7 97 10 L 94 9 L 92 10 L 92 12 L 92 13 L 89 12 Q 88 9 91 10 Q 92 7 90 8 L 88 11 L 86 8 L 85 10 Q 82 11 83 8 L 76 8 Z M 104 8 L 103 11 L 104 11 L 104 8 Z M 106 16 Q 105 18 109 17 L 109 18 Q 105 17 106 20 L 109 19 L 111 20 L 111 18 Q 110 15 106 16 Z M 51 40 L 49 49 Q 47 55 50 57 Q 52 63 49 65 L 49 72 L 51 72 L 51 40 Z M 125 63 L 124 68 L 126 67 L 125 69 L 127 69 Q 128 65 125 66 L 125 63 Z M 127 84 Q 124 88 128 87 L 127 84 Z M 49 88 L 49 96 L 51 96 L 51 89 L 49 88 Z M 125 91 L 125 95 L 127 96 L 125 91 Z M 120 98 L 118 101 L 120 100 L 120 98 Z M 119 102 L 117 104 L 120 104 L 119 102 Z M 51 104 L 50 112 L 51 112 L 51 104 Z M 107 110 L 107 112 L 112 112 L 107 110 Z M 102 115 L 102 117 L 104 116 L 102 115 Z M 99 118 L 98 120 L 100 119 L 99 118 Z M 103 118 L 104 120 Q 105 117 103 118 Z M 72 119 L 72 120 L 74 120 L 72 119 Z M 87 125 Q 84 127 87 128 L 88 128 L 87 125 Z M 81 126 Q 80 128 84 128 Q 85 125 81 126 Z " /><path fill="rgb(255,255,255)" stroke="rgb(255,255,255)" stroke-width="1" opacity="1" d="M 80.5 9 L 79.5 11 L 78 10.5 L 80.5 9 Z " /><path fill="rgb(255,255,255)" stroke="rgb(255,255,255)" stroke-width="1" opacity="1" d="M 72.5 23 Q 74.8 22.3 74 24.5 L 72.5 23 Z " /><path fill="rgb(255,255,255)" stroke="rgb(255,255,255)" stroke-width="1" opacity="1" d="M 74.5 26 L 77 26.5 Q 74.9 29.8 74.5 26 Z " /><path fill="rgb(255,255,255)" stroke="rgb(255,255,255)" stroke-width="1" opacity="1" d="M 74.5 37 L 75 39.5 L 74 39.5 L 74.5 37 Z " /><path fill="rgb(255,255,255)" stroke="rgb(255,255,255)" stroke-width="1" opacity="1" d="M 82.5 41 L 86 46 L 84 46.5 L 87.5 48 L 89 47.5 L 89 49.5 L 91.5 58 L 92.5 53 L 94 60.5 L 93 60.5 L 92.5 59 Q 93.4 64.4 90.5 66 L 87.5 64 L 80.5 66 L 76.5 65 L 75 65.5 L 75.5 64 Q 73.3 64.8 74 62.5 L 75 61.5 L 75 45.5 L 78.5 42 L 79.5 56 L 81 47.5 L 80 44.5 Q 78.9 41.2 81.5 42 L 82.5 41 Z M 84 43 L 82 46 L 84 46 Q 87 45 84 43 Z M 77 48 L 76 54 L 77 54 L 77 48 Z M 89 56 L 88 64 L 89 64 L 89 56 Z M 80 57 L 79 62 L 80 62 L 80 57 Z M 91 60 L 90 65 L 91 65 L 91 60 Z M 77 61 L 76 64 L 78 64 L 77 61 Z " /><path fill="rgb(255,255,255)" stroke="rgb(255,255,255)" stroke-width="1" opacity="1" d="M 123.5 41 L 124.5 43 L 126 42.5 L 124.5 45 L 123.5 41 Z " /><path fill="rgb(255,255,255)" stroke="rgb(255,255,255)" stroke-width="1" opacity="1" d="M 77.5 66 L 79 66.5 L 74.5 70 L 77.5 66 Z " /><path fill="rgb(255,255,255)" stroke="rgb(255,255,255)" stroke-width="1" opacity="1" d="M 92.5 66 L 91.5 68 L 92.5 66 Z " /><path fill="rgb(255,255,255)" stroke="rgb(255,255,255)" stroke-width="1" opacity="1" d="M 91.5 69 L 92 70.5 L 90.5 73 L 89 70.5 L 91.5 69 Z " /><path fill="rgb(255,255,255)" stroke="rgb(255,255,255)" stroke-width="1" opacity="1" d="M 87.5 72 L 88 74.5 L 87.5 76 L 84.5 75 L 84.5 76 L 88 78.5 L 89 80.5 L 88 84.5 L 89 84.5 L 90.5 81 L 92 84.5 L 90 84.5 L 91 88.5 L 90 88.5 L 89.5 87 L 89 89.5 L 90 90.5 L 81.5 99 L 80 98.5 L 82 97.5 L 80.5 95 L 82 95.5 L 82.5 93 L 84.5 94 L 88 91.5 L 86.5 91 L 82.5 92 Q 78.6 88.2 80 80 L 82 79.5 L 80 78.5 L 84 78 Q 85.1 75.3 82.5 76 L 80.5 77 L 80.5 76 L 87.5 72 Z M 85 78 L 85 79 L 87 79 L 85 78 Z M 86 88 L 86 90 L 88 89 L 86 88 Z M 83 89 L 83 91 L 85 90 L 83 89 Z " /><path fill="rgb(255,255,255)" stroke="rgb(255,255,255)" stroke-width="1" opacity="1" d="M 89.5 74 L 90 77.5 L 89 77.5 L 89.5 74 Z " /><path fill="rgb(255,255,255)" stroke="rgb(255,255,255)" stroke-width="1" opacity="1" d="M 74.5 75 L 73.5 77 L 74.5 75 Z " /><path fill="rgb(255,255,255)" stroke="rgb(255,255,255)" stroke-width="1" opacity="1" d="M 64 98 L 66 98.5 L 63.5 102 L 63 100.5 L 64 98 Z " /><path fill="rgb(210,209,209)" stroke="rgb(210,209,209)" stroke-width="1" opacity="1" d="M 78.5 11 L 77.5 13 L 78.5 11 Z " /><path fill="rgb(210,209,209)" stroke="rgb(210,209,209)" stroke-width="1" opacity="1" d="M 97.5 15 L 98.5 17 L 97.5 15 Z " /><path fill="rgb(210,209,209)" stroke="rgb(210,209,209)" stroke-width="1" opacity="1" d="M 64.5 17 L 68 17.5 L 58 22.5 Q 56.5 26.9 59.5 26 L 67 30.5 L 59.5 31 L 58 32.5 Q 56.8 36.3 60.5 35 L 62 36.5 L 58.5 40 L 58 38.5 L 58 36.5 L 57 32.5 Q 60.7 31.3 60 27 L 57 25.5 Q 56 21 58.5 20 L 64.5 17 Z " /><path fill="rgb(210,209,209)" stroke="rgb(210,209,209)" stroke-width="1" opacity="1" d="M 105.5 20 L 107.5 23 L 105.5 20 Z " /><path fill="rgb(210,209,209)" stroke="rgb(210,209,209)" stroke-width="1" opacity="1" d="M 70 21 L 74 22.5 L 71 23.5 L 72 26.5 L 70 25.5 L 70 21 Z " /><path fill="rgb(210,209,209)" stroke="rgb(210,209,209)" stroke-width="1" opacity="1" d="M 75.5 25 L 78 25.5 L 75.5 26 L 75.5 25 Z " /><path fill="rgb(210,209,209)" stroke="rgb(210,209,209)" stroke-width="1" opacity="1" d="M 115.5 30 L 117.5 33 L 115.5 30 Z " /><path fill="rgb(210,209,209)" stroke="rgb(210,209,209)" stroke-width="1" opacity="1" d="M 71.5 31 Q 74.9 30.1 73 35.5 L 70 38.5 L 71.5 41 L 68 40 L 72 34.5 L 72 32.5 L 71.5 31 Z " /><path fill="rgb(210,209,209)" stroke="rgb(210,209,209)" stroke-width="1" opacity="1" d="M 118.5 34 L 119.5 36 L 118.5 34 Z " /><path fill="rgb(210,209,209)" stroke="rgb(210,209,209)" stroke-width="1" opacity="1" d="M 120.5 37 L 122 39.5 L 121 39.5 L 120.5 37 Z " /><path fill="rgb(210,209,209)" stroke="rgb(210,209,209)" stroke-width="1" opacity="1" d="M 57.5 41 L 59 44.5 L 58 45.5 L 58 56.5 L 58 58.5 L 57.5 70 Q 55.3 68.3 56 63.5 L 56 61.5 L 58 57.5 Q 55 55.5 56 49.5 L 57 46.5 L 56.5 45 L 58 44.5 L 57.5 41 Z " /><path fill="rgb(210,209,209)" stroke="rgb(210,209,209)" stroke-width="1" opacity="1" d="M 71.5 44 L 73 44.5 L 73 60.5 L 71 66 Q 73.7 64.9 73 67.5 L 70.5 66 Q 67.9 66.8 69 63.5 L 72 60.5 L 72 45.5 L 71.5 44 Z " /><path fill="rgb(210,209,209)" stroke="rgb(210,209,209)" stroke-width="1" opacity="1" d="M 62 45 L 68 45 L 68 47.5 Q 66.6 50.3 62 49 L 62 45 Z " /><path fill="rgb(210,209,209)" stroke="rgb(210,209,209)" stroke-width="1" opacity="1" d="M 62.5 68 L 63 70 L 68 70.5 L 58 76.5 L 57.5 79 L 57 76.5 L 58 74 L 62 73 Q 63.3 70 59.5 71 L 59.5 70 Q 63 71 62.5 68 Z " /><path fill="rgb(210,209,209)" stroke="rgb(210,209,209)" stroke-width="1" opacity="1" d="M 72.5 69 L 73 71 L 71 70.5 L 72.5 69 Z " /><path fill="rgb(210,209,209)" stroke="rgb(210,209,209)" stroke-width="1" opacity="1" d="M 89.5 69 L 86.5 73 L 89.5 69 Z " /><path fill="rgb(210,209,209)" stroke="rgb(210,209,209)" stroke-width="1" opacity="1" d="M 71.5 74 L 73 80.5 L 71.5 81 Q 69 80 70 75.5 L 71.5 74 Z " /><path fill="rgb(210,209,209)" stroke="rgb(210,209,209)" stroke-width="1" opacity="1" d="M 58.5 80 L 70 84.5 L 68 85 L 68 89 L 72 89 L 72 90.5 L 70.5 90 Q 63.8 91.8 62 88.5 L 62 87 L 58 87 L 58 98 L 62 98 L 62 95 L 69.5 95 L 72 94 L 72 99 Q 66.4 96.8 68 102.5 L 66 106.5 L 68 109.5 L 67 112 L 62 112 L 62 108.5 L 63 104 Q 59.2 103 58 105.5 L 57.5 115 Q 55.3 113.3 56 108.5 L 56 106.5 L 58.5 103 L 62.5 102 L 66 104 Q 65 99.3 68.5 98 Q 72.3 99.3 71 95.5 L 69.5 96 L 65.5 96 L 61.5 99 L 58.5 99 Q 55.3 98.3 56 93.5 L 57 91.5 L 56 89.5 L 58.5 86 Q 62.3 85.3 63 87.5 Q 62.2 90.1 65.5 89 L 67 85.5 L 59.5 82 L 58.5 80 Z M 64 107 L 63 110 L 66 111 Q 68 106 64 107 Z " /><path fill="rgb(210,209,209)" stroke="rgb(210,209,209)" stroke-width="1" opacity="1" d="M 73.5 82 L 72.5 84 L 73.5 82 Z " /><path fill="rgb(210,209,209)" stroke="rgb(210,209,209)" stroke-width="1" opacity="1" d="M 92.5 83 L 93 85.5 L 92 85.5 L 92.5 83 Z " /><path fill="rgb(210,209,209)" stroke="rgb(210,209,209)" stroke-width="1" opacity="1" d="M 82.5 98 L 81.5 100 L 82.5 98 Z " /><path fill="rgb(210,209,209)" stroke="rgb(210,209,209)" stroke-width="1" opacity="1" d="M 70.5 103 Q 72.8 102.3 72 104.5 L 70.5 103 Z " /><path fill="rgb(210,209,209)" stroke="rgb(210,209,209)" stroke-width="1" opacity="1" d="M 106.5 109 L 105.5 111 L 106.5 109 Z " /><path fill="rgb(210,209,209)" stroke="rgb(210,209,209)" stroke-width="1" opacity="1" d="M 71.5 115 L 70.5 117 L 71.5 115 Z " /><path fill="rgb(210,209,209)" stroke="rgb(210,209,209)" stroke-width="1" opacity="1" d="M 77.5 118 L 78.5 120 L 77.5 118 Z " /><path fill="rgb(30,28,29)" stroke="rgb(30,28,29)" stroke-width="1" opacity="1" d="M 80 11 L 83 11.5 L 80 13.5 L 81 15.5 L 78 20.5 L 80 21.5 L 75.5 24 L 72 21.5 L 74 20.5 L 72 20 L 73.5 16 L 75.5 15 L 77.5 16 L 77.5 14 L 79 14.5 L 80 11 Z M 76 16 L 73 17 L 74 19 L 76 18 L 76 16 Z M 79 16 L 78 19 L 79 19 L 79 16 Z M 75 19 L 76 21 L 78 20 L 75 19 Z " /><path fill="rgb(30,28,29)" stroke="rgb(30,28,29)" stroke-width="1" opacity="1" d="M 83.5 13 L 88 14.5 L 83.5 16 L 83.5 13 Z " /><path fill="rgb(30,28,29)" stroke="rgb(30,28,29)" stroke-width="1" opacity="1" d="M 92.5 14 L 91.5 16 L 90 15.5 L 92.5 14 Z " /><path fill="rgb(30,28,29)" stroke="rgb(30,28,29)" stroke-width="1" opacity="1" d="M 97.5 16 Q 100.3 17.3 98 18.5 L 100 23.5 L 98.5 23 L 96.5 24 L 97 22.5 L 96 19.5 L 97.5 16 Z " /><path fill="rgb(30,28,29)" stroke="rgb(30,28,29)" stroke-width="1" opacity="1" d="M 100.5 20 L 102.5 21 L 104 20.5 L 101 22.5 L 100.5 20 Z " /><path fill="rgb(30,28,29)" stroke="rgb(30,28,29)" stroke-width="1" opacity="1" d="M 69.5 21 L 71 27.5 L 69 26.5 L 69.5 21 Z " /><path fill="rgb(30,28,29)" stroke="rgb(30,28,29)" stroke-width="1" opacity="1" d="M 105.5 21 L 109 24.5 Q 106.8 25.8 109.5 27 L 111 26.5 L 110.5 28 L 112 28.5 L 110 29 Q 108.9 31.7 111.5 31 L 113.5 29 L 117 32.5 L 119 35.5 L 117 35.5 Q 116.2 38.1 119.5 37 L 117.5 40 L 116 39.5 L 117 37.5 L 114 37.5 L 115 39.5 L 112 39.5 L 113 37.5 Q 110.8 36.3 113.5 35 Q 115.8 34.3 115 36.5 L 116 36.5 L 117 34.5 L 114 32.5 Q 116.3 31.3 113.5 30 L 112.5 34 L 112 32 L 108 29.5 L 110 28.5 L 108 28 L 108 26 L 106 26 Q 107.1 23.3 104.5 24 L 104.5 23 L 106 22.5 L 105.5 21 Z " /><path fill="rgb(30,28,29)" stroke="rgb(30,28,29)" stroke-width="1" opacity="1" d="M 65.5 22 Q 68.1 21.2 67 24.5 L 66 24.5 L 65.5 22 Z " /><path fill="rgb(30,28,29)" stroke="rgb(30,28,29)" stroke-width="1" opacity="1" d="M 63.5 23 L 64.5 25 Q 61.7 25.7 63.5 23 Z " /><path fill="rgb(30,28,29)" stroke="rgb(30,28,29)" stroke-width="1" opacity="1" d="M 77.5 27 L 78 29 Q 80.7 27.9 80 30.5 L 79.5 32 L 82 32.5 L 79.5 33 L 77.5 27 Z " /><path fill="rgb(30,28,29)" stroke="rgb(30,28,29)" stroke-width="1" opacity="1" d="M 105.5 27 L 107.5 32 L 105.5 31 L 104 31.5 L 104 29.5 L 105.5 27 Z " /><path fill="rgb(30,28,29)" stroke="rgb(30,28,29)" stroke-width="1" opacity="1" d="M 76.5 31 L 77 34 L 84 33.5 L 83.5 32 L 85.5 33 L 87.5 32 L 87.5 33 Q 85.3 32.3 86 34.5 Q 83.8 35.8 86.5 37 Q 89.1 36.2 88 39.5 L 90.5 43 L 91.5 41 L 92.5 43 L 91 43.5 L 92.5 46 L 93 44 L 95 43.5 L 94 41 Q 97 39.8 96 43.5 L 93 50.5 L 94.5 50 Q 97.1 49.2 96 52.5 L 95 52.5 L 94.5 51 L 93.5 53 L 91 48.5 L 93 48.5 L 91.5 46 L 90.5 47 L 86 42.5 L 89 41.5 L 87 41 L 85.5 37 L 80.5 35 L 80.5 36 L 83 37.5 L 81.5 37 L 78.5 35 L 77 35.5 L 76.5 31 Z M 89 43 L 90 45 Q 91 42 89 43 Z " /><path fill="rgb(30,28,29)" stroke="rgb(30,28,29)" stroke-width="1" opacity="1" d="M 59.5 34 L 63 34.5 L 59.5 35 L 59.5 34 Z " /><path fill="rgb(30,28,29)" stroke="rgb(30,28,29)" stroke-width="1" opacity="1" d="M 67.5 37 L 64.5 41 L 67.5 37 Z " /><path fill="rgb(30,28,29)" stroke="rgb(30,28,29)" stroke-width="1" opacity="1" d="M 77.5 37 L 80 38.5 L 78.5 38 L 77.5 37 Z " /><path fill="rgb(30,28,29)" stroke="rgb(30,28,29)" stroke-width="1" opacity="1" d="M 61.5 38 L 60.5 40 L 61.5 38 Z " /><path fill="rgb(30,28,29)" stroke="rgb(30,28,29)" stroke-width="1" opacity="1" d="M 84.5 38 L 86 40.5 Q 84.5 43.5 83 40.5 L 84.5 38 Z " /><path fill="rgb(30,28,29)" stroke="rgb(30,28,29)" stroke-width="1" opacity="1" d="M 121.5 40 L 122 41.5 L 121 43.5 L 123 43.5 L 121.5 47 L 120 42.5 L 121.5 40 Z " /><path fill="rgb(30,28,29)" stroke="rgb(30,28,29)" stroke-width="1" opacity="1" d="M 68.5 46 L 69 51.5 L 68 51.5 L 68.5 46 Z " /><path fill="rgb(30,28,29)" stroke="rgb(30,28,29)" stroke-width="1" opacity="1" d="M 58.5 47 L 59 55.5 L 58 55.5 L 58.5 47 Z " /><path fill="rgb(30,28,29)" stroke="rgb(30,28,29)" stroke-width="1" opacity="1" d="M 124.5 47 L 125 48.5 L 124 51.5 L 126 51.5 L 124.5 54 L 123.5 52 L 123 54.5 L 123.5 56 L 120.5 57 L 120.5 56 Q 123.5 56.9 122 52.5 L 123 49.5 L 122.5 48 L 124 48.5 L 124.5 47 Z " /><path fill="rgb(30,28,29)" stroke="rgb(30,28,29)" stroke-width="1" opacity="1" d="M 61.5 48 L 62.5 53 L 64.5 49 L 67 50.5 L 68 53.5 L 66 52.5 Q 67 48.8 64 50 L 62.5 54 Q 59.6 52.6 61.5 48 Z " /><path fill="rgb(30,28,29)" stroke="rgb(30,28,29)" stroke-width="1" opacity="1" d="M 125.5 56 L 126.5 58 Q 125.3 55.8 124 58.5 Q 126.2 59.8 123.5 61 Q 122.2 58.7 121 61.5 L 122 66.5 L 120 67.5 L 121 64.5 L 120 61.5 L 122 58 L 125.5 56 Z " /><path fill="rgb(30,28,29)" stroke="rgb(30,28,29)" stroke-width="1" opacity="1" d="M 70.5 57 L 68.5 60 L 70.5 57 Z " /><path fill="rgb(30,28,29)" stroke="rgb(30,28,29)" stroke-width="1" opacity="1" d="M 65.5 58 L 66.5 60 L 65.5 58 Z " /><path fill="rgb(30,28,29)" stroke="rgb(30,28,29)" stroke-width="1" opacity="1" d="M 58.5 60 L 59 68.5 L 58 68.5 L 58.5 60 Z " /><path fill="rgb(30,28,29)" stroke="rgb(30,28,29)" stroke-width="1" opacity="1" d="M 62.5 60 L 63.5 62 L 62 61.5 L 61.5 66 L 61 61.5 L 62.5 60 Z " /><path fill="rgb(30,28,29)" stroke="rgb(30,28,29)" stroke-width="1" opacity="1" d="M 94.5 66 L 96 70.5 L 96 72.5 L 95 77.5 L 96 79.5 L 93.5 86 L 93 83.5 L 94 80.5 L 93 80.5 L 92.5 82 L 92 80.5 Q 95.3 79.3 94 73.5 L 92.5 71 Q 93.8 73.3 95 70.5 L 94.5 66 Z " /><path fill="rgb(30,28,29)" stroke="rgb(30,28,29)" stroke-width="1" opacity="1" d="M 86.5 67 Q 91.5 69.5 86.5 72 L 87 70.5 L 86.5 67 Z " /><path fill="rgb(30,28,29)" stroke="rgb(30,28,29)" stroke-width="1" opacity="1" d="M 83.5 68 L 85 68.5 L 83 69.5 L 85 70 L 83.5 74 L 83 71.5 L 82.5 70 Q 78.3 71.8 81 73.5 L 81 75 L 79 75.5 L 79 87.5 L 77.5 92 L 75.5 82 L 74 82.5 Q 75.5 79.5 77 82.5 L 77.5 88 L 78 75.5 L 80 73.5 L 78.5 73 L 77 73.5 L 77.5 71 L 79.5 72 L 79.5 70 L 81 70.5 Q 80.3 68.3 82.5 69 L 83.5 68 Z " /><path fill="rgb(30,28,29)" stroke="rgb(30,28,29)" stroke-width="1" opacity="1" d="M 66.5 69 L 69 69.5 L 66.5 70 L 66.5 69 Z " /><path fill="rgb(30,28,29)" stroke="rgb(30,28,29)" stroke-width="1" opacity="1" d="M 120 70 L 122.5 71 L 124 70.5 L 123 72.5 L 125 72.5 L 124 74.5 L 126 79.5 L 125 79.5 L 124.5 78 L 123 80.5 L 124.5 83 L 121.5 85 L 123 82.5 L 122 80.5 L 124 76.5 L 121.5 71 L 120 71.5 L 120 70 Z " /><path fill="rgb(30,28,29)" stroke="rgb(30,28,29)" stroke-width="1" opacity="1" d="M 126.5 73 L 127 75.5 L 126 75.5 L 126.5 73 Z " /><path fill="rgb(30,28,29)" stroke="rgb(30,28,29)" stroke-width="1" opacity="1" d="M 69.5 74 L 71 81.5 L 69 80.5 L 69.5 74 Z " /><path fill="rgb(30,28,29)" stroke="rgb(30,28,29)" stroke-width="1" opacity="1" d="M 64.5 76 Q 68.7 74.9 67 79 L 63 77.5 L 64.5 76 Z " /><path fill="rgb(30,28,29)" stroke="rgb(30,28,29)" stroke-width="1" opacity="1" d="M 95.5 85 L 96 87.5 L 96 89.5 L 95.5 91 L 94 87.5 L 95.5 85 Z " /><path fill="rgb(30,28,29)" stroke="rgb(30,28,29)" stroke-width="1" opacity="1" d="M 68.5 86 L 70 88.5 L 68 87.5 L 68.5 86 Z " /><path fill="rgb(30,28,29)" stroke="rgb(30,28,29)" stroke-width="1" opacity="1" d="M 72.5 86 L 73 111.5 L 74.5 113 L 76 112.5 L 75 111.5 L 75 102.5 L 76 97.5 L 75 97.5 L 74.5 99 L 74 96 Q 76.7 97.1 76 94.5 L 77 94.5 Q 75.3 101.3 78.5 103 L 79 101 L 82.5 99 L 85 100.5 L 84.5 103 L 83 102.5 Q 83.7 105.1 81 104 L 80.5 102 L 79 103.5 L 79 112 L 81 112.5 L 79.5 113 Q 78.3 110.8 77 113.5 L 79 114 L 80.5 117 L 82 117.5 L 80.5 118 L 77 116.5 Q 79.3 115.3 76.5 114 L 72 113 L 72.5 86 Z M 83 100 L 81 102 L 83 102 L 83 100 Z M 78 104 L 77 112 L 78 112 L 78 104 Z " /><path fill="rgb(30,28,29)" stroke="rgb(30,28,29)" stroke-width="1" opacity="1" d="M 58.5 88 L 59 95.5 L 58 95.5 L 58.5 88 Z " /><path fill="rgb(30,28,29)" stroke="rgb(30,28,29)" stroke-width="1" opacity="1" d="M 114.5 88 L 115 89.5 L 112.5 94 L 112 91.5 L 114.5 88 Z " /><path fill="rgb(30,28,29)" stroke="rgb(30,28,29)" stroke-width="1" opacity="1" d="M 117.5 88 L 117.5 90 L 120 90.5 Q 116.5 91 117 95.5 L 118 95.5 L 119.5 93 L 119 94.5 L 117.5 97 L 115.5 94 L 114 96.5 L 116 99.5 L 114.5 101 L 112 100.5 L 114 97.5 L 113 95.5 L 114 93 Q 117.7 94.5 117 91.5 L 116 89.5 L 117.5 88 Z " /><path fill="rgb(30,28,29)" stroke="rgb(30,28,29)" stroke-width="1" opacity="1" d="M 79.5 89 L 80 91.5 L 79 91.5 L 79.5 89 Z " /><path fill="rgb(30,28,29)" stroke="rgb(30,28,29)" stroke-width="1" opacity="1" d="M 91.5 90 L 94 91 L 94.5 93 L 96 92.5 Q 96.8 94.8 94.5 94 L 92 92.5 L 94 95.5 L 91.5 94 L 89.5 96 L 88 94.5 L 91 93.5 L 90 91.5 L 91.5 90 Z " /><path fill="rgb(30,28,29)" stroke="rgb(30,28,29)" stroke-width="1" opacity="1" d="M 78.5 93 L 79 99.5 L 78 99.5 L 78.5 93 Z " /><path fill="rgb(30,28,29)" stroke="rgb(30,28,29)" stroke-width="1" opacity="1" d="M 86.5 96 L 88 99.5 L 87 101.5 Q 89.3 102.7 86.5 104 L 87 100.5 L 85 97.5 L 86.5 96 Z " /><path fill="rgb(30,28,29)" stroke="rgb(30,28,29)" stroke-width="1" opacity="1" d="M 69.5 104 L 70.5 106 L 69.5 104 Z " /><path fill="rgb(30,28,29)" stroke="rgb(30,28,29)" stroke-width="1" opacity="1" d="M 100.5 104 L 106 104.5 L 104.5 107 L 108.5 104 L 106.5 109 L 104.5 108 L 102.5 109 L 102.5 108 L 104 107.5 L 100.5 104 Z " /><path fill="rgb(30,28,29)" stroke="rgb(30,28,29)" stroke-width="1" opacity="1" d="M 58.5 106 L 59 113.5 L 58 113.5 L 58.5 106 Z " /><path fill="rgb(30,28,29)" stroke="rgb(30,28,29)" stroke-width="1" opacity="1" d="M 62.5 106 L 61.5 108 L 62.5 106 Z " /><path fill="rgb(30,28,29)" stroke="rgb(30,28,29)" stroke-width="1" opacity="1" d="M 67.5 106 Q 70.3 107.3 69 112.5 L 68 112.5 L 67.5 106 Z " /><path fill="rgb(30,28,29)" stroke="rgb(30,28,29)" stroke-width="1" opacity="1" d="M 96.5 106 L 97 109 Q 99.7 110.1 99 107.5 L 98.5 106 L 101 110.5 L 99.5 114 L 96 110.5 L 96 108.5 L 96.5 106 Z M 98 110 Q 98 114 100 111 L 98 110 Z " /><path fill="rgb(30,28,29)" stroke="rgb(30,28,29)" stroke-width="1" opacity="1" d="M 103.5 110 L 102.5 112 L 103.5 110 Z " /><path fill="rgb(30,28,29)" stroke="rgb(30,28,29)" stroke-width="1" opacity="1" d="M 83.5 112 L 88.5 114 L 89.5 112 L 91 113.5 L 90.5 116 L 88.5 115 L 83.5 118 L 84.5 116 L 88 114.5 L 85.5 113 L 82.5 114 L 83.5 112 Z " /><path fill="rgb(30,28,29)" stroke="rgb(30,28,29)" stroke-width="1" opacity="1" d="M 95.5 113 Q 97.8 112.3 97 114.5 L 94.5 116 L 93.5 114 L 95.5 115 L 95.5 113 Z " /><path fill="rgb(30,28,29)" stroke="rgb(30,28,29)" stroke-width="1" opacity="1" d="M 80.5 119 L 84 119.5 L 80.5 120 L 80.5 119 Z " /><path fill="rgb(1,1,1)" stroke="rgb(1,1,1)" stroke-width="1" opacity="1" d="M 69.5 18 L 71 18.5 Q 67.5 20.2 69 26 L 67 26.5 L 71 28.5 L 69.5 29 L 67 28.5 Q 67.9 25.5 63.5 27 L 59 25 L 60.5 22 L 69.5 18 Z M 68 20 L 67 22 L 66 21 L 63 23 L 63 25 Q 62 28 67 26 L 68 23 L 68 20 Z " /><path fill="rgb(1,1,1)" stroke="rgb(1,1,1)" stroke-width="1" opacity="1" d="M 59.5 32 L 61.5 33 L 64.5 32 L 68.5 33 L 70.5 32 L 70.5 33 L 69 33.5 L 70 36 L 65 38 L 65 40 Q 62.3 38.9 63 41.5 L 65.5 42 L 71 42.5 L 65.5 43 L 63.5 43 L 59 42.5 L 61 41.5 Q 58.7 40.3 61.5 39 L 67 36 Q 68.5 32.2 65.5 33 L 59 34 L 59.5 32 Z " /><path fill="rgb(1,1,1)" stroke="rgb(1,1,1)" stroke-width="1" opacity="1" d="M 59.5 46 Q 61.9 48.3 61 53 L 59 52.5 L 59.5 46 Z " /><path fill="rgb(1,1,1)" stroke="rgb(1,1,1)" stroke-width="1" opacity="1" d="M 69 46 Q 72.7 44.6 71 50.5 L 71 52.5 L 71 56 L 66 56 Q 67.1 53.3 64.5 54 L 64.5 56 L 62.5 56 Q 60.3 56.8 61 54.5 L 63 54.5 L 64.5 52 Q 66.8 51.3 66 53.5 Q 67.5 56.5 69 53.5 L 69 46 Z " /><path fill="rgb(1,1,1)" stroke="rgb(1,1,1)" stroke-width="1" opacity="1" d="M 61.5 58 L 66 59.5 L 65.5 61 Q 68.8 59.9 68 62.5 L 66 66.5 L 68.5 68 Q 69.8 65.7 71 68.5 L 66 69 L 65.5 67 L 64 67.5 L 65 65.5 L 62.5 59 L 60 64.5 L 61 67.5 L 59.5 69 L 59 60.5 L 61.5 58 Z " /><path fill="rgb(1,1,1)" stroke="rgb(1,1,1)" stroke-width="1" opacity="1" d="M 69.5 72 L 71 72.5 Q 67.5 74 69 80.5 L 70.5 83 L 59 79 L 61.5 75 L 65.5 74 L 64.5 76 L 61 77.5 L 66.5 81 L 68 76.5 L 67 73 L 69.5 72 Z " /><path fill="rgb(1,1,1)" stroke="rgb(1,1,1)" stroke-width="1" opacity="1" d="M 59.5 88 L 60 91 Q 63 89.8 62 93.5 Q 58.9 95.3 60.5 97 L 59 96.5 L 59.5 88 Z " /><path fill="rgb(1,1,1)" stroke="rgb(1,1,1)" stroke-width="1" opacity="1" d="M 65.5 92 L 68 92.5 L 65.5 93 L 65.5 92 Z " /><path fill="rgb(1,1,1)" stroke="rgb(1,1,1)" stroke-width="1" opacity="1" d="M 69 100 Q 72 99 71 102 Q 68 103 69 100 Z " /><path fill="rgb(1,1,1)" stroke="rgb(1,1,1)" stroke-width="1" opacity="1" d="M 60.5 105 L 62 105.5 L 60 106 L 61 108.5 L 60 110.5 L 61 112.5 L 60.5 114 Q 63.8 112.9 63 115.5 L 61.5 115 L 59 113.5 Q 57.3 106.7 60.5 105 Z " /><path fill="rgb(1,1,1)" stroke="rgb(1,1,1)" stroke-width="1" opacity="1" d="M 67.5 105 L 71 106.5 Q 72.3 111.2 70 112.5 Q 72.3 113.7 69.5 115 L 69 108.5 Q 71.3 107.3 68.5 106 L 67.5 105 Z " /><path fill="rgb(1,1,1)" stroke="rgb(1,1,1)" stroke-width="1" opacity="1" d="M 66.5 114 Q 69.1 113.3 68 116 L 64 115.5 L 66.5 114 Z " /><path fill="rgb(245,244,245)" stroke="rgb(245,244,245)" stroke-width="1" opacity="1" d="M 74.5 12 L 77 13.5 L 75.5 13 L 74.5 12 Z " /><path fill="rgb(245,244,245)" stroke="rgb(245,244,245)" stroke-width="1" opacity="1" d="M 74.5 14 L 73.5 16 L 72 15.5 L 74.5 14 Z " /><path fill="rgb(245,244,245)" stroke="rgb(245,244,245)" stroke-width="1" opacity="1" d="M 99.5 14 L 100.5 16 L 99.5 14 Z " /><path fill="rgb(245,244,245)" stroke="rgb(245,244,245)" stroke-width="1" opacity="1" d="M 65.5 16 L 70 16.5 L 65.5 17 L 65.5 16 Z " /><path fill="rgb(245,244,245)" stroke="rgb(245,244,245)" stroke-width="1" opacity="1" d="M 56.5 17 L 59.5 18 L 62.5 17 L 64 17.5 L 61.5 19 L 60 18.5 L 59.5 20 L 56.5 17 Z " /><path fill="rgb(245,244,245)" stroke="rgb(245,244,245)" stroke-width="1" opacity="1" d="M 103.5 17 L 105 17.5 L 102.5 19 L 103.5 17 Z " /><path fill="rgb(245,244,245)" stroke="rgb(245,244,245)" stroke-width="1" opacity="1" d="M 57.5 20 L 56.5 22 L 57.5 20 Z " /><path fill="rgb(245,244,245)" stroke="rgb(245,244,245)" stroke-width="1" opacity="1" d="M 107.5 21 L 108.5 23 L 107.5 21 Z " /><path fill="rgb(245,244,245)" stroke="rgb(245,244,245)" stroke-width="1" opacity="1" d="M 110.5 21 L 111.5 23 L 110.5 21 Z " /><path fill="rgb(245,244,245)" stroke="rgb(245,244,245)" stroke-width="1" opacity="1" d="M 56.5 23 L 58.5 27 Q 61.1 26.2 60 29.5 Q 56.5 30 57 34.5 L 59 37.5 L 57 43.5 L 57.5 45 L 56 45.5 L 57 48.5 Q 54.8 49.7 56 54.5 L 58 57.5 L 56 61.5 Q 58.3 62.8 55.5 64 L 55 40.5 L 57 37.5 Q 54.8 36.2 56 31.5 L 57 28.5 L 56.5 23 Z " /><path fill="rgb(245,244,245)" stroke="rgb(245,244,245)" stroke-width="1" opacity="1" d="M 71.5 23 L 73.5 26 L 74.5 24 L 75 25.5 L 74 27.5 L 76 31.5 L 74 31.5 L 75 33.5 L 73 36.5 L 74 38.5 L 74 40.5 L 75 47.5 L 74 48.5 L 74 57.5 L 75 59.5 L 72 64.5 L 74 65 L 75 68.5 L 75 70.5 L 73 78.5 L 73.5 80 Q 70.5 80.5 72 73.5 L 73 70.5 L 72 68.5 L 73 66 Q 70.3 67.1 71 64.5 L 73 60.5 L 73 44.5 L 70 38.5 Q 74 37.5 73 31.5 L 73 29.5 L 71.5 23 Z " /><path fill="rgb(245,244,245)" stroke="rgb(245,244,245)" stroke-width="1" opacity="1" d="M 110.5 24 L 115 27.5 L 113.5 28 L 110.5 24 Z " /><path fill="rgb(245,244,245)" stroke="rgb(245,244,245)" stroke-width="1" opacity="1" d="M 117.5 27 L 118.5 29 L 117.5 27 Z " /><path fill="rgb(245,244,245)" stroke="rgb(245,244,245)" stroke-width="1" opacity="1" d="M 81.5 40 L 82 42 L 80 41.5 L 81.5 40 Z " /><path fill="rgb(245,244,245)" stroke="rgb(245,244,245)" stroke-width="1" opacity="1" d="M 84.5 42 L 85 44.5 L 83.5 46 L 83 43.5 L 84.5 42 Z " /><path fill="rgb(245,244,245)" stroke="rgb(245,244,245)" stroke-width="1" opacity="1" d="M 81.5 44 L 80.5 46 L 81.5 44 Z " /><path fill="rgb(245,244,245)" stroke="rgb(245,244,245)" stroke-width="1" opacity="1" d="M 86.5 44 L 87 47 L 85 46.5 L 86.5 44 Z " /><path fill="rgb(245,244,245)" stroke="rgb(245,244,245)" stroke-width="1" opacity="1" d="M 90.5 48 L 92 50.5 L 90 49.5 L 90.5 48 Z " /><path fill="rgb(245,244,245)" stroke="rgb(245,244,245)" stroke-width="1" opacity="1" d="M 92.5 60 L 93 62.5 L 92 62.5 L 92.5 60 Z " /><path fill="rgb(245,244,245)" stroke="rgb(245,244,245)" stroke-width="1" opacity="1" d="M 126.5 60 L 127 61.5 Q 124 62.5 125 67.5 L 125.5 69 L 123 68.5 L 124 63.5 L 123.5 62 Q 124.8 64.3 126 61.5 L 126.5 60 Z " /><path fill="rgb(245,244,245)" stroke="rgb(245,244,245)" stroke-width="1" opacity="1" d="M 90.5 64 L 91.5 66 L 89 65.5 L 90.5 64 Z " /><path fill="rgb(245,244,245)" stroke="rgb(245,244,245)" stroke-width="1" opacity="1" d="M 93.5 65 L 94 66.5 Q 90.9 68.3 92.5 70 L 90 69.5 Q 89.3 67.3 91.5 68 L 93.5 65 Z " /><path fill="rgb(245,244,245)" stroke="rgb(245,244,245)" stroke-width="1" opacity="1" d="M 56.5 68 L 57 70 L 61.5 71 L 63 70.5 L 62 73 L 58 74 L 57 78.5 L 59.5 82 L 67 85.5 L 65.5 89 Q 62.2 90.1 63 87.5 Q 62.3 85.3 58.5 86 L 56 90.5 L 57 92.5 L 55.5 96 L 55 88.5 L 56 85 L 61 83.5 L 58 83 L 57.5 81 L 56 81.5 L 56 79.5 Q 55.2 74.2 58 72.5 Q 54.9 71.4 56.5 68 Z M 64 85 L 64 86 L 66 86 L 64 85 Z " /><path fill="rgb(245,244,245)" stroke="rgb(245,244,245)" stroke-width="1" opacity="1" d="M 125.5 70 L 126.5 72 L 125.5 70 Z " /><path fill="rgb(245,244,245)" stroke="rgb(245,244,245)" stroke-width="1" opacity="1" d="M 79.5 76 L 83 77.5 L 80 78 L 79.5 87 L 79.5 76 Z " /><path fill="rgb(245,244,245)" stroke="rgb(245,244,245)" stroke-width="1" opacity="1" d="M 127.5 78 L 126.5 80 L 127.5 78 Z " /><path fill="rgb(245,244,245)" stroke="rgb(245,244,245)" stroke-width="1" opacity="1" d="M 89.5 87 L 91 89.5 L 89 88.5 L 89.5 87 Z " /><path fill="rgb(245,244,245)" stroke="rgb(245,244,245)" stroke-width="1" opacity="1" d="M 80.5 88 L 81 93.5 L 80 93.5 L 80.5 88 Z " /><path fill="rgb(245,244,245)" stroke="rgb(245,244,245)" stroke-width="1" opacity="1" d="M 125.5 89 L 126.5 91 L 125.5 89 Z " /><path fill="rgb(245,244,245)" stroke="rgb(245,244,245)" stroke-width="1" opacity="1" d="M 70.5 95 L 71 98 Q 66.3 97.3 65 101.5 L 66 104 L 60.5 102 L 56 105.5 L 57 107.5 L 55.5 112 L 55 104 L 59 101.5 L 58.5 100 Q 57.3 102.3 56 99.5 L 56.5 97 Q 57.3 99.8 61.5 99 L 65.5 96 L 70.5 95 Z M 66 97 L 62 101 L 64 102 L 64 101 L 67 99 L 66 97 Z " /><path fill="rgb(245,244,245)" stroke="rgb(245,244,245)" stroke-width="1" opacity="1" d="M 79 96 L 81 96.5 L 79 97.5 L 79 96 Z " /><path fill="rgb(245,244,245)" stroke="rgb(245,244,245)" stroke-width="1" opacity="1" d="M 118.5 97 L 120 100 L 117 98.5 L 118.5 97 Z " /><path fill="rgb(245,244,245)" stroke="rgb(245,244,245)" stroke-width="1" opacity="1" d="M 115.5 101 L 113.5 104 L 115.5 101 Z " /><path fill="rgb(245,244,245)" stroke="rgb(245,244,245)" stroke-width="1" opacity="1" d="M 118.5 102 L 119.5 104 L 118.5 102 Z " /><path fill="rgb(245,244,245)" stroke="rgb(245,244,245)" stroke-width="1" opacity="1" d="M 111.5 105 L 110.5 107 L 111.5 105 Z " /><path fill="rgb(245,244,245)" stroke="rgb(245,244,245)" stroke-width="1" opacity="1" d="M 64 107 Q 67.7 105.8 66 111 L 63 109.5 L 64 107 Z " /><path fill="rgb(245,244,245)" stroke="rgb(245,244,245)" stroke-width="1" opacity="1" d="M 56.5 113 L 59.5 117 L 61 117.5 L 59 118.5 Q 59.8 116.3 57.5 117 Q 55 116 56.5 113 Z " /><path fill="rgb(245,244,245)" stroke="rgb(245,244,245)" stroke-width="1" opacity="1" d="M 71.5 116 L 75.5 118 L 77 117.5 L 76.5 120 L 71.5 117 L 71.5 116 Z " /><path fill="rgb(245,244,245)" stroke="rgb(245,244,245)" stroke-width="1" opacity="1" d="M 67 117 L 69 117.5 L 67 118.5 L 67 117 Z " /><path fill="rgb(245,244,245)" stroke="rgb(245,244,245)" stroke-width="1" opacity="1" d="M 97.5 117 L 100 118.5 L 98.5 119 L 97.5 117 Z " /><path fill="rgb(245,244,245)" stroke="rgb(245,244,245)" stroke-width="1" opacity="1" d="M 80.5 120 L 82.5 121 L 84 120.5 L 81.5 122 L 80.5 120 Z " /><path fill="rgb(22,21,21)" stroke="rgb(22,21,21)" stroke-width="1" opacity="1" d="M 78.5 13 L 80.5 16 L 81 14.5 L 80.5 13 L 84 14.5 L 83.5 16 L 88 14.5 L 87.5 13 L 96 16 L 96.5 18 Q 98.3 15.2 100 19.5 L 101.5 23 L 102.5 20 Q 106.2 22 104.5 24 Q 107.1 23.2 106 26.5 L 108 26.5 Q 107.3 28.8 109.5 28 L 111 27.5 L 110.5 29 L 114 30.5 L 114.5 33 L 116 32.5 L 115.5 35 L 113 35.5 L 114.5 37 L 117.5 36 L 119 36.5 L 117 37 L 116 39.5 L 117.5 40 L 120 39 L 121 41.5 L 120 43.5 L 121.5 47 L 122.5 44 L 125 49.5 L 123 49.5 L 123.5 52 Q 124.8 49.8 126 52.5 L 124 52.5 L 126 55.5 L 122 58 L 121 60.5 L 123 61.5 L 121.5 62 L 120 61.5 L 121 64.5 L 120.5 68 L 123 69.5 Q 122.3 71.8 124.5 71 L 123.5 73 L 122.5 71 L 122 73.5 L 124 76.5 L 123 80 Q 125.7 78.9 125 81.5 L 123 81.5 L 122 83.5 L 123 86.5 Q 119.9 88.3 121.5 90 L 116.5 89 L 116 90.5 L 117.5 93 L 120.5 91 L 120.5 92 L 117.5 94 L 114 93 L 114.5 95 L 116 94.5 L 115.5 96 L 117 96.5 L 114 97.5 Q 114.7 100.1 112 99 L 112 104 L 108.5 104 L 109 105.5 Q 109.8 107.8 107.5 107 L 105.5 107 L 104 107.5 Q 106.7 109.3 102.5 111 L 100.5 112 Q 99 109.5 97.5 113 L 95 113.5 L 95.5 115 L 93.5 114 L 91.5 117 L 90 114.5 Q 92.3 113.3 89.5 112 L 86 113.5 L 90 116.5 L 85.5 118 L 85.5 117 L 88 115.5 L 86.5 115 L 83 117.5 L 83.5 119 Q 79.8 119.8 79 117.5 L 80 115.5 L 77.5 114 L 77.5 116 L 76 114.5 Q 79.5 113 77 111.5 Q 78.3 104.7 75.5 102 L 75 111.5 L 75.5 113 L 73 112 L 74 101.5 L 73 100.5 L 73 92.5 L 75 86.5 L 72 85.5 L 75 84.5 L 74.5 83 L 76 84.5 L 77 92 L 79 92.5 L 77.5 95 L 76 94.5 Q 76.7 97.1 74 96 L 74 98.5 L 75 98.5 L 75.5 97 L 76.5 102 L 77.5 99 L 79.5 103 L 82.5 101 Q 83.8 103.3 85 100.5 L 84 99.5 L 87 96.5 L 87.5 95 L 89.5 96 L 90.5 94 L 89 93.5 L 90.5 93 L 92 93.5 L 92.5 92 Q 93.8 94.3 95 91.5 L 92 90.5 L 93.5 89 L 96 90.5 L 95 88.5 L 96 85 Q 93.3 86.1 94 83.5 L 92 79.5 Q 94.3 78.3 93 73.5 L 93 71.5 L 96 64.5 L 96 62.5 L 95 57.5 L 95 55.5 L 94 53.5 L 96 53 Q 97.5 49.3 94.5 50 L 94.5 52 L 90 45.5 L 93 45.5 L 93 47.5 L 93.5 49 L 95 44 L 90.5 43 L 89 43.5 L 90 41.5 L 87.5 43 L 86 41.5 L 84.5 38 L 80.5 39 L 79.5 37 Q 80.8 39.3 82 36.5 L 80 35.5 L 82.5 35 L 85.5 37 L 86 34.5 Q 86.8 32.3 84.5 33 L 78 34 L 80 29 L 78 28.5 L 80 27.5 L 78 26.5 L 80 25.5 L 80 23.5 Q 81.1 20.2 78.5 21 L 76.5 21 L 75 21.5 L 75.5 23 Q 72.8 21.8 75 20.5 Q 74.3 17.9 77 19 L 77.5 21 Q 80.5 20.5 80 16.5 L 77 15.5 L 78.5 13 Z M 98 18 L 96 21 L 96 23 L 97 24 L 99 23 L 100 24 L 98 18 Z M 104 27 L 104 30 L 104 32 L 106 32 L 107 31 Q 103 29 106 28 L 104 27 Z M 109 29 L 110 31 Q 111 28 109 29 Z M 112 30 L 111 32 L 114 34 L 113 33 Q 114 29 112 30 Z M 80 32 L 80 33 L 82 33 L 80 32 Z M 87 32 L 88 34 Q 89 31 87 32 Z M 87 37 L 87 39 Q 86 42 89 41 L 88 40 Q 89 36 87 37 Z M 92 41 Q 90 44 93 43 L 92 41 Z M 94 41 L 94 43 L 96 44 Q 97 40 94 41 Z M 123 52 L 122 56 L 124 56 L 123 52 Z M 96 69 L 95 71 Q 91 72 94 74 Q 95 78 93 80 L 95 83 L 96 80 L 95 78 L 96 74 L 96 69 Z M 120 70 L 120 72 L 122 71 L 120 70 Z M 114 90 L 112 92 L 113 94 L 114 92 L 114 90 Z M 96 92 L 94 94 L 96 94 L 96 92 Z M 88 99 Q 85 100 86 104 Q 89 105 88 103 L 88 101 L 88 99 Z M 78 102 Q 78 105 78 112 L 79 112 L 79 104 L 78 102 Z M 81 102 Q 80 105 83 104 Q 84 101 81 102 Z M 101 104 L 103 107 L 107 105 L 101 104 Z M 97 106 L 96 109 L 97 109 L 97 106 Z M 100 107 L 99 109 L 97 110 L 100 110 L 100 107 Z M 84 112 L 83 114 L 86 113 L 84 112 Z M 82 115 L 83 117 Q 84 114 82 115 Z " /><path fill="rgb(22,21,21)" stroke="rgb(22,21,21)" stroke-width="1" opacity="1" d="M 63.5 34 L 66 34.5 L 63.5 35 L 63.5 34 Z " /><path fill="rgb(22,21,21)" stroke="rgb(22,21,21)" stroke-width="1" opacity="1" d="M 59.5 43 L 64 43.5 L 59.5 44 L 59.5 43 Z " /><path fill="rgb(22,21,21)" stroke="rgb(22,21,21)" stroke-width="1" opacity="1" d="M 86.5 66 L 89 66.5 L 88.5 69 L 86 67.5 L 87 69.5 Q 85.8 72.3 84.5 70 L 82 71.5 L 83 73.5 L 81.5 73 L 78.5 72 L 79 73.5 Q 79.7 76.5 76 75 L 80.5 68 L 81.5 71 L 82.5 68 L 84.5 69 L 84.5 67 L 86.5 66 Z " /><path fill="rgb(22,21,21)" stroke="rgb(22,21,21)" stroke-width="1" opacity="1" d="M 124.5 74 L 125.5 76 L 124.5 74 Z " /><path fill="rgb(22,21,21)" stroke="rgb(22,21,21)" stroke-width="1" opacity="1" d="M 63.5 76 L 62.5 78 L 63.5 76 Z " /><path fill="rgb(22,21,21)" stroke="rgb(22,21,21)" stroke-width="1" opacity="1" d="M 125.5 77 L 124.5 79 L 125.5 77 Z " /><path fill="rgb(22,21,21)" stroke="rgb(22,21,21)" stroke-width="1" opacity="1" d="M 77.5 80 L 78 82 L 76 81.5 L 77.5 80 Z " /><path fill="rgb(22,21,21)" stroke="rgb(22,21,21)" stroke-width="1" opacity="1" d="M 77.5 86 L 79 88.5 L 77 87.5 L 77.5 86 Z " /><path fill="rgb(22,21,21)" stroke="rgb(22,21,21)" stroke-width="1" opacity="1" d="M 66.5 91 L 69 91.5 L 66.5 92 L 66.5 91 Z " /><path fill="rgb(22,21,21)" stroke="rgb(22,21,21)" stroke-width="1" opacity="1" d="M 62.5 105 L 61.5 107 L 62.5 105 Z " /><path fill="rgb(22,21,21)" stroke="rgb(22,21,21)" stroke-width="1" opacity="1" d="M 65.5 113 L 69 113.5 L 65.5 114 L 65.5 113 Z " /><path fill="rgb(15,14,14)" stroke="rgb(15,14,14)" stroke-width="1" opacity="1" d="M 85.5 12 L 86.5 14 L 85.5 12 Z " /><path fill="rgb(15,14,14)" stroke="rgb(15,14,14)" stroke-width="1" opacity="1" d="M 78.5 17 L 79 18.5 L 77 19.5 L 78.5 17 Z " /><path fill="rgb(15,14,14)" stroke="rgb(15,14,14)" stroke-width="1" opacity="1" d="M 73.5 18 Q 76.5 19.5 73.5 21 L 73.5 18 Z " /><path fill="rgb(15,14,14)" stroke="rgb(15,14,14)" stroke-width="1" opacity="1" d="M 77.5 31 L 78 33.5 L 76 34.5 L 77.5 31 Z " /><path fill="rgb(15,14,14)" stroke="rgb(15,14,14)" stroke-width="1" opacity="1" d="M 116.5 34 L 115.5 36 L 116.5 34 Z " /><path fill="rgb(15,14,14)" stroke="rgb(15,14,14)" stroke-width="1" opacity="1" d="M 77.5 36 L 81 37.5 L 79.5 37 Q 76.5 37.5 77.5 36 Z " /><path fill="rgb(15,14,14)" stroke="rgb(15,14,14)" stroke-width="1" opacity="1" d="M 63.5 37 L 62.5 39 L 63.5 37 Z " /><path fill="rgb(15,14,14)" stroke="rgb(15,14,14)" stroke-width="1" opacity="1" d="M 119.5 38 L 121 40.5 L 120 40.5 L 119.5 38 Z " /><path fill="rgb(15,14,14)" stroke="rgb(15,14,14)" stroke-width="1" opacity="1" d="M 64.5 43 L 67 43.5 L 64.5 44 L 64.5 43 Z " /><path fill="rgb(15,14,14)" stroke="rgb(15,14,14)" stroke-width="1" opacity="1" d="M 88.5 43 L 89.5 45 L 88.5 43 Z " /><path fill="rgb(15,14,14)" stroke="rgb(15,14,14)" stroke-width="1" opacity="1" d="M 95.5 60 L 96 62.5 L 95 62.5 L 95.5 60 Z " /><path fill="rgb(15,14,14)" stroke="rgb(15,14,14)" stroke-width="1" opacity="1" d="M 78.5 69 L 77.5 71 L 76 70.5 L 78.5 69 Z " /><path fill="rgb(15,14,14)" stroke="rgb(15,14,14)" stroke-width="1" opacity="1" d="M 82.5 71 L 83.5 73 L 82.5 71 Z " /><path fill="rgb(15,14,14)" stroke="rgb(15,14,14)" stroke-width="1" opacity="1" d="M 125.5 72 L 126 74.5 L 125 74.5 L 125.5 72 Z " /><path fill="rgb(15,14,14)" stroke="rgb(15,14,14)" stroke-width="1" opacity="1" d="M 77.5 82 L 78 85.5 L 77 85.5 L 77.5 82 Z " /><path fill="rgb(15,14,14)" stroke="rgb(15,14,14)" stroke-width="1" opacity="1" d="M 75.5 83 L 73.5 86 L 75.5 83 Z " /><path fill="rgb(15,14,14)" stroke="rgb(15,14,14)" stroke-width="1" opacity="1" d="M 73.5 87 L 74 91.5 L 73 91.5 L 73.5 87 Z " /><path fill="rgb(15,14,14)" stroke="rgb(15,14,14)" stroke-width="1" opacity="1" d="M 93.5 87 L 94 88.5 L 92 89.5 L 93.5 87 Z " /><path fill="rgb(15,14,14)" stroke="rgb(15,14,14)" stroke-width="1" opacity="1" d="M 62.5 91 L 65 91.5 L 62.5 92 L 62.5 91 Z " /><path fill="rgb(15,14,14)" stroke="rgb(15,14,14)" stroke-width="1" opacity="1" d="M 91.5 91 L 90.5 93 L 91.5 91 Z " /><path fill="rgb(15,14,14)" stroke="rgb(15,14,14)" stroke-width="1" opacity="1" d="M 89.5 94 L 88.5 96 L 89.5 94 Z " /><path fill="rgb(15,14,14)" stroke="rgb(15,14,14)" stroke-width="1" opacity="1" d="M 73.5 101 L 74 103.5 L 73 103.5 L 73.5 101 Z " /><path fill="rgb(15,14,14)" stroke="rgb(15,14,14)" stroke-width="1" opacity="1" d="M 86.5 102 L 87.5 104 L 86.5 102 Z " /><path fill="rgb(15,14,14)" stroke="rgb(15,14,14)" stroke-width="1" opacity="1" d="M 74.5 112 L 74 113.5 L 73.5 115 L 73 113.5 L 74.5 112 Z " /><path fill="rgb(15,14,14)" stroke="rgb(15,14,14)" stroke-width="1" opacity="1" d="M 99.5 112 L 98.5 114 L 97 113.5 L 99.5 112 Z " /><path fill="rgb(15,14,14)" stroke="rgb(15,14,14)" stroke-width="1" opacity="1" d="M 61.5 113 Q 65.3 112.3 66 114.5 L 64.5 114 Q 60.5 114.8 61.5 113 Z " /><path fill="rgb(15,14,14)" stroke="rgb(15,14,14)" stroke-width="1" opacity="1" d="M 79.5 115 L 78.5 117 L 79.5 115 Z " /><path fill="rgb(134,133,133)" stroke="rgb(134,133,133)" stroke-width="1" opacity="1" d="M 79.5 11 L 76.5 15 L 79.5 11 Z " /><path fill="rgb(134,133,133)" stroke="rgb(134,133,133)" stroke-width="1" opacity="1" d="M 72.5 16 L 72 17.5 Q 73.5 21.9 70.5 21 L 71 19.5 L 72.5 16 Z " /><path fill="rgb(134,133,133)" stroke="rgb(134,133,133)" stroke-width="1" opacity="1" d="M 68.5 17 L 70 17.5 L 66.5 19 L 66.5 18 L 68.5 17 Z " /><path fill="rgb(134,133,133)" stroke="rgb(134,133,133)" stroke-width="1" opacity="1" d="M 101.5 18 L 102.5 20 L 101.5 18 Z " /><path fill="rgb(134,133,133)" stroke="rgb(134,133,133)" stroke-width="1" opacity="1" d="M 63.5 19 L 65 19.5 L 61.5 21 L 61.5 20 L 63.5 19 Z " /><path fill="rgb(134,133,133)" stroke="rgb(134,133,133)" stroke-width="1" opacity="1" d="M 59.5 21 L 58.5 23 L 59.5 21 Z " /><path fill="rgb(134,133,133)" stroke="rgb(134,133,133)" stroke-width="1" opacity="1" d="M 64.5 23 Q 66.8 22.3 66 24.5 L 64.5 23 Z " /><path fill="rgb(134,133,133)" stroke="rgb(134,133,133)" stroke-width="1" opacity="1" d="M 74.5 23 L 77 24.5 L 75.5 25 L 74.5 23 Z " /><path fill="rgb(134,133,133)" stroke="rgb(134,133,133)" stroke-width="1" opacity="1" d="M 108.5 23 L 114.5 30 L 108.5 23 Z " /><path fill="rgb(134,133,133)" stroke="rgb(134,133,133)" stroke-width="1" opacity="1" d="M 70.5 26 Q 72.8 26.8 72 30.5 L 72 32.5 L 71.5 35 L 71 32 L 59.5 32 L 59 34.5 L 58 34.5 L 59.5 31 L 67 30.5 L 62 27.5 L 63.5 27 L 71 30 L 70.5 26 Z " /><path fill="rgb(134,133,133)" stroke="rgb(134,133,133)" stroke-width="1" opacity="1" d="M 75.5 34 L 77 37.5 L 75 36.5 L 75.5 34 Z " /><path fill="rgb(134,133,133)" stroke="rgb(134,133,133)" stroke-width="1" opacity="1" d="M 61.5 35 Q 64.8 33.9 64 36.5 L 59 40.5 L 58.5 42 L 58 40.5 Q 63.4 37.8 61.5 35 Z " /><path fill="rgb(134,133,133)" stroke="rgb(134,133,133)" stroke-width="1" opacity="1" d="M 69.5 36 L 68 38.5 Q 67.2 41.1 70.5 40 L 72 43.5 L 72 45.5 L 72 60.5 Q 68.3 61.7 69 66 L 72 67.5 L 71 70.5 L 72 73.5 L 70 74.5 L 71 71 L 63.5 74 L 63.5 73 L 71 69 Q 72.1 66.3 69.5 67 L 67 66 L 71 60.5 L 71 57.5 L 67.5 60 L 65.5 58 Q 58.5 56.5 59 59.5 L 58 59.5 L 59 57.5 L 58.5 56 L 71 56 L 71 46 L 62 45 L 61.5 48 L 61 46 L 58.5 47 L 58 45.5 L 58.5 43 L 59.5 44 L 71 44 Q 72.8 38.8 65.5 41 L 69.5 36 Z " /><path fill="rgb(134,133,133)" stroke="rgb(134,133,133)" stroke-width="1" opacity="1" d="M 85.5 42 L 90.5 48 L 85.5 42 Z " /><path fill="rgb(134,133,133)" stroke="rgb(134,133,133)" stroke-width="1" opacity="1" d="M 67.5 48 L 68 52.5 L 67 52.5 L 66 49.5 L 67.5 48 Z " /><path fill="rgb(134,133,133)" stroke="rgb(134,133,133)" stroke-width="1" opacity="1" d="M 62 49 L 64 49.5 L 62.5 53 L 62 49 Z " /><path fill="rgb(134,133,133)" stroke="rgb(134,133,133)" stroke-width="1" opacity="1" d="M 126.5 53 L 127 56.5 L 126 56.5 L 126.5 53 Z " /><path fill="rgb(134,133,133)" stroke="rgb(134,133,133)" stroke-width="1" opacity="1" d="M 94.5 56 L 95 65.5 L 94 65.5 L 94.5 56 Z " /><path fill="rgb(134,133,133)" stroke="rgb(134,133,133)" stroke-width="1" opacity="1" d="M 126.5 58 L 123.5 62 L 126.5 58 Z " /><path fill="rgb(134,133,133)" stroke="rgb(134,133,133)" stroke-width="1" opacity="1" d="M 62.5 61 L 64 62.5 L 64 69 L 66 69.5 L 63 70 L 62.5 68 L 62 70 L 58 69.5 L 61 69 L 62.5 61 Z " /><path fill="rgb(134,133,133)" stroke="rgb(134,133,133)" stroke-width="1" opacity="1" d="M 85.5 65 L 88 65.5 L 85.5 66 L 85.5 65 Z " /><path fill="rgb(134,133,133)" stroke="rgb(134,133,133)" stroke-width="1" opacity="1" d="M 76.5 69 L 76 70.5 L 75.5 75 L 75 70.5 L 76.5 69 Z " /><path fill="rgb(134,133,133)" stroke="rgb(134,133,133)" stroke-width="1" opacity="1" d="M 93.5 69 L 92.5 71 L 93.5 69 Z " /><path fill="rgb(134,133,133)" stroke="rgb(134,133,133)" stroke-width="1" opacity="1" d="M 123.5 69 L 126.5 73 L 123.5 69 Z " /><path fill="rgb(134,133,133)" stroke="rgb(134,133,133)" stroke-width="1" opacity="1" d="M 85.5 72 L 84.5 74 L 85.5 72 Z " /><path fill="rgb(134,133,133)" stroke="rgb(134,133,133)" stroke-width="1" opacity="1" d="M 91.5 72 L 92 74.5 L 91 74.5 L 91.5 72 Z " /><path fill="rgb(134,133,133)" stroke="rgb(134,133,133)" stroke-width="1" opacity="1" d="M 60.5 74 L 62 74.5 L 59 76.5 L 60.5 80 L 64 81.5 L 62.5 82 L 58 80 Q 57 75.3 60.5 74 Z " /><path fill="rgb(134,133,133)" stroke="rgb(134,133,133)" stroke-width="1" opacity="1" d="M 76.5 77 L 77 79.5 L 74 81.5 L 76.5 77 Z " /><path fill="rgb(134,133,133)" stroke="rgb(134,133,133)" stroke-width="1" opacity="1" d="M 91.5 77 L 92 79.5 L 91 79.5 L 91.5 77 Z " /><path fill="rgb(134,133,133)" stroke="rgb(134,133,133)" stroke-width="1" opacity="1" d="M 70.5 80 L 72 81.5 L 72 89 L 70 88.5 L 71 86 L 68 85.5 L 71 83.5 L 70.5 80 Z " /><path fill="rgb(134,133,133)" stroke="rgb(134,133,133)" stroke-width="1" opacity="1" d="M 65.5 82 L 69 83.5 L 67.5 84 L 65.5 82 Z " /><path fill="rgb(134,133,133)" stroke="rgb(134,133,133)" stroke-width="1" opacity="1" d="M 61.5 87 L 63.5 90 Q 70.3 88.3 72 91.5 L 71.5 94 L 71 91 L 62.5 91 L 62 89.5 L 61.5 87 Z " /><path fill="rgb(134,133,133)" stroke="rgb(134,133,133)" stroke-width="1" opacity="1" d="M 91.5 89 L 90.5 91 L 91.5 89 Z " /><path fill="rgb(134,133,133)" stroke="rgb(134,133,133)" stroke-width="1" opacity="1" d="M 89.5 92 L 83.5 99 L 89.5 92 Z " /><path fill="rgb(134,133,133)" stroke="rgb(134,133,133)" stroke-width="1" opacity="1" d="M 62.5 94 L 70 94.5 L 62 95 L 61.5 98 L 61 95.5 L 62.5 94 Z " /><path fill="rgb(134,133,133)" stroke="rgb(134,133,133)" stroke-width="1" opacity="1" d="M 118.5 96 L 116.5 99 L 118.5 96 Z " /><path fill="rgb(134,133,133)" stroke="rgb(134,133,133)" stroke-width="1" opacity="1" d="M 68.5 99 Q 74.2 97.4 72 103 L 70 103.5 L 72 105.5 L 72 115 L 75 115.5 L 72.5 116 Q 71 113.5 69.5 117 L 60 116.5 L 69.5 116 L 71 114.5 L 71 105.5 L 69.5 104 Q 65.8 102.8 67 106.5 L 68 108.5 L 67 108.5 L 66 104.5 Q 67.2 101.3 71 102 Q 72.3 99 68.5 100 L 68.5 99 Z " /><path fill="rgb(134,133,133)" stroke="rgb(134,133,133)" stroke-width="1" opacity="1" d="M 115.5 100 L 107.5 109 L 115.5 100 Z " /><path fill="rgb(134,133,133)" stroke="rgb(134,133,133)" stroke-width="1" opacity="1" d="M 62.5 107 L 62 108.5 L 61.5 111 L 61 108.5 L 62.5 107 Z " /><path fill="rgb(134,133,133)" stroke="rgb(134,133,133)" stroke-width="1" opacity="1" d="M 105.5 109 L 103.5 112 L 105.5 109 Z " /><path fill="rgb(134,133,133)" stroke="rgb(134,133,133)" stroke-width="1" opacity="1" d="M 67.5 110 L 68 113 L 62 112.5 L 67 112 L 67.5 110 Z " /><path fill="rgb(134,133,133)" stroke="rgb(134,133,133)" stroke-width="1" opacity="1" d="M 76.5 116 L 79.5 120 L 76.5 116 Z " /><path fill="rgb(8,8,8)" stroke="rgb(8,8,8)" stroke-width="1" opacity="1" d="M 67.5 20 L 68 22.5 L 67 22.5 L 67.5 20 Z " /><path fill="rgb(8,8,8)" stroke="rgb(8,8,8)" stroke-width="1" opacity="1" d="M 105.5 22 L 106.5 24 L 105.5 22 Z " /><path fill="rgb(8,8,8)" stroke="rgb(8,8,8)" stroke-width="1" opacity="1" d="M 67.5 24 L 67.5 26 L 69 26.5 L 65.5 28 L 65.5 27 L 67 26.5 Q 64.8 25.3 67.5 24 Z " /><path fill="rgb(8,8,8)" stroke="rgb(8,8,8)" stroke-width="1" opacity="1" d="M 68.5 32 L 71 33 L 70.5 35 L 68 34.5 L 68.5 32 Z " /><path fill="rgb(8,8,8)" stroke="rgb(8,8,8)" stroke-width="1" opacity="1" d="M 65.5 33 Q 68.1 32.2 67 35.5 L 66 35.5 L 65.5 33 Z " /><path fill="rgb(8,8,8)" stroke="rgb(8,8,8)" stroke-width="1" opacity="1" d="M 59.5 40 L 60.5 42 Q 57.7 42.7 59.5 40 Z " /><path fill="rgb(8,8,8)" stroke="rgb(8,8,8)" stroke-width="1" opacity="1" d="M 63.5 40 L 64.5 42 L 66.5 41 L 66.5 42 L 64.5 43 L 63.5 40 Z " /><path fill="rgb(8,8,8)" stroke="rgb(8,8,8)" stroke-width="1" opacity="1" d="M 59.5 53 Q 62.1 52.2 61 55.5 L 60 55.5 L 59.5 53 Z " /><path fill="rgb(8,8,8)" stroke="rgb(8,8,8)" stroke-width="1" opacity="1" d="M 68.5 53 L 67.5 55 L 68.5 53 Z " /><path fill="rgb(8,8,8)" stroke="rgb(8,8,8)" stroke-width="1" opacity="1" d="M 62.5 54 L 64.5 54 Q 66.8 53.3 66 55.5 L 63.5 56 L 62.5 54 Z " /><path fill="rgb(8,8,8)" stroke="rgb(8,8,8)" stroke-width="1" opacity="1" d="M 60.5 58 L 59.5 60 L 60.5 58 Z " /><path fill="rgb(8,8,8)" stroke="rgb(8,8,8)" stroke-width="1" opacity="1" d="M 70.5 58 L 71 60.5 L 68 62.5 Q 68.8 59.9 65.5 61 L 65.5 60 L 69.5 61 L 70.5 58 Z " /><path fill="rgb(8,8,8)" stroke="rgb(8,8,8)" stroke-width="1" opacity="1" d="M 65.5 62 L 67 64.5 L 65 63.5 L 65.5 62 Z " /><path fill="rgb(8,8,8)" stroke="rgb(8,8,8)" stroke-width="1" opacity="1" d="M 65.5 67 L 66 69 L 64 68.5 L 65.5 67 Z " /><path fill="rgb(8,8,8)" stroke="rgb(8,8,8)" stroke-width="1" opacity="1" d="M 66.5 74 L 68 77.5 L 67 77.5 Q 67.8 75.3 65.5 76 L 66.5 74 Z " /><path fill="rgb(8,8,8)" stroke="rgb(8,8,8)" stroke-width="1" opacity="1" d="M 69 86 L 71 86.5 L 69 87.5 L 69 86 Z " /><path fill="rgb(8,8,8)" stroke="rgb(8,8,8)" stroke-width="1" opacity="1" d="M 65.5 91 L 64.5 93 L 65.5 91 Z " /><path fill="rgb(8,8,8)" stroke="rgb(8,8,8)" stroke-width="1" opacity="1" d="M 68.5 92 L 67.5 94 L 68.5 92 Z " /><path fill="rgb(8,8,8)" stroke="rgb(8,8,8)" stroke-width="1" opacity="1" d="M 116.5 97 L 114.5 100 L 116.5 97 Z " /><path fill="rgb(8,8,8)" stroke="rgb(8,8,8)" stroke-width="1" opacity="1" d="M 83.5 99 L 82.5 101 L 83.5 99 Z " /><path fill="rgb(8,8,8)" stroke="rgb(8,8,8)" stroke-width="1" opacity="1" d="M 60.5 104 L 62 104.5 L 60 105.5 L 61 107.5 L 60 107.5 L 59 105.5 L 60.5 104 Z " /><path fill="rgb(8,8,8)" stroke="rgb(8,8,8)" stroke-width="1" opacity="1" d="M 68.5 106 L 69.5 108 L 68.5 106 Z " /><path fill="rgb(8,8,8)" stroke="rgb(8,8,8)" stroke-width="1" opacity="1" d="M 60.5 113 L 59.5 115 L 60.5 113 Z " /><path fill="rgb(254,253,253)" stroke="rgb(254,253,253)" stroke-width="1" opacity="1" d="M 75.5 8 L 78.5 9 L 83 8 Q 84.1 10.7 81.5 10 L 79.5 10 L 75.5 9 Q 72.9 10.4 73.5 15 L 72 10 L 75.5 8 Z " /><path fill="rgb(254,253,253)" stroke="rgb(254,253,253)" stroke-width="1" opacity="1" d="M 85.5 8 L 87 10.5 L 84 10.5 L 85.5 8 Z " /><path fill="rgb(254,253,253)" stroke="rgb(254,253,253)" stroke-width="1" opacity="1" d="M 89.5 8 L 92.5 10 L 95.5 8 L 95.5 9 L 94 9.5 L 97 10 Q 95.9 7.3 98.5 8 L 98.5 10 L 101 11.5 L 99.5 12 L 93 11 L 93.5 13 L 95.5 13 L 97.5 12 L 95.5 15 L 94.5 13 Q 93.3 15.3 92 12.5 L 90.5 10 Q 88.3 9.3 89 11.5 L 88 11.5 L 89.5 8 Z " /><path fill="rgb(254,253,253)" stroke="rgb(254,253,253)" stroke-width="1" opacity="1" d="M 103.5 8 L 104 10.5 L 103 10.5 L 103.5 8 Z " /><path fill="rgb(254,253,253)" stroke="rgb(254,253,253)" stroke-width="1" opacity="1" d="M 102.5 12 L 104 16.5 L 102 16.5 L 101.5 18 L 100 14.5 L 102 14.5 L 102.5 12 Z " /><path fill="rgb(254,253,253)" stroke="rgb(254,253,253)" stroke-width="1" opacity="1" d="M 58.5 16 Q 60.8 15.3 60 17.5 L 62 17.5 L 60.5 19 L 58.5 16 Z " /><path fill="rgb(254,253,253)" stroke="rgb(254,253,253)" stroke-width="1" opacity="1" d="M 105.5 16 L 108 16.5 L 105.5 17 L 105.5 16 Z " /><path fill="rgb(254,253,253)" stroke="rgb(254,253,253)" stroke-width="1" opacity="1" d="M 109.5 16 L 112 16.5 L 109 21.5 L 110.5 24 Q 108.3 24.8 109 22.5 L 108 21.5 L 109.5 19 L 106.5 20 L 106 18 Q 109.8 19.3 109.5 16 Z " /><path fill="rgb(254,253,253)" stroke="rgb(254,253,253)" stroke-width="1" opacity="1" d="M 56.5 19 L 59 19.5 L 56.5 20 L 56.5 19 Z " /><path fill="rgb(254,253,253)" stroke="rgb(254,253,253)" stroke-width="1" opacity="1" d="M 53 24 Q 57.1 22.3 56 26.5 L 56 28.5 L 57 30.5 Q 54.8 31.7 56 36.5 L 56 38.5 L 55 40.5 L 55 63.5 Q 57.5 65 56 70.5 L 58 73.5 L 56 74 L 56 79.5 L 58 83 L 56 82.5 Q 58.3 81.3 55.5 80 L 51 80 L 51 72.5 L 49 71.5 L 49 64.5 Q 51.8 62.7 50 56.5 Q 47.2 54.8 49 48.5 L 50.5 40 L 51 72 L 54 71.5 L 54 40.5 L 53 39.5 L 53 24 Z " /><path fill="rgb(254,253,253)" stroke="rgb(254,253,253)" stroke-width="1" opacity="1" d="M 112.5 24 L 115 24.5 L 114.5 27 Q 112.3 27.8 113 25.5 L 112.5 24 Z " /><path fill="rgb(254,253,253)" stroke="rgb(254,253,253)" stroke-width="1" opacity="1" d="M 119.5 26 L 118.5 29 L 120 29.5 L 116.5 31 L 115 28 Q 118.4 28.8 119.5 26 Z " /><path fill="rgb(254,253,253)" stroke="rgb(254,253,253)" stroke-width="1" opacity="1" d="M 74.5 27 L 75.5 29 L 74.5 27 Z " /><path fill="rgb(254,253,253)" stroke="rgb(254,253,253)" stroke-width="1" opacity="1" d="M 119.5 31 L 120.5 34 L 121.5 32 L 124.5 37 L 125 35.5 L 123 32.5 L 124.5 32 L 128 36.5 L 126 36.5 L 127 40 L 125 40.5 L 127 41 L 128 44.5 L 125.5 45 L 126 43.5 L 125.5 42 L 124 42.5 L 124.5 41 L 123 40.5 L 125 40 L 124.5 38 L 123 38.5 L 123.5 37 L 120 36 Q 121.1 33.3 118.5 34 L 119 32.5 L 119.5 31 Z " /><path fill="rgb(254,253,253)" stroke="rgb(254,253,253)" stroke-width="1" opacity="1" d="M 74.5 35 L 75 37 L 73 36.5 L 74.5 35 Z " /><path fill="rgb(254,253,253)" stroke="rgb(254,253,253)" stroke-width="1" opacity="1" d="M 72.5 38 L 75 39.5 L 75.5 38 L 76.5 40 L 78.5 39 L 81 40.5 Q 78.7 41.7 80 46.5 L 84 44.5 L 80 48.5 L 79.5 56 L 78.5 42 L 74 45.5 Q 74.8 39.3 72.5 38 Z " /><path fill="rgb(254,253,253)" stroke="rgb(254,253,253)" stroke-width="1" opacity="1" d="M 87 46 L 90 47.5 L 92 55.5 L 91 55.5 L 89.5 51 L 88.5 53 L 88 51.5 L 89 49.5 L 87 46 Z " /><path fill="rgb(254,253,253)" stroke="rgb(254,253,253)" stroke-width="1" opacity="1" d="M 125.5 46 L 128 49.5 L 127 49.5 Q 127.7 46.9 125 48 L 125.5 46 Z " /><path fill="rgb(254,253,253)" stroke="rgb(254,253,253)" stroke-width="1" opacity="1" d="M 74.5 48 L 75 57.5 L 74 57.5 L 74.5 48 Z " /><path fill="rgb(254,253,253)" stroke="rgb(254,253,253)" stroke-width="1" opacity="1" d="M 76.5 48 L 77 53.5 L 76 53.5 L 76.5 48 Z " /><path fill="rgb(254,253,253)" stroke="rgb(254,253,253)" stroke-width="1" opacity="1" d="M 88.5 56 L 89 58.5 L 88 58.5 L 88.5 56 Z " /><path fill="rgb(254,253,253)" stroke="rgb(254,253,253)" stroke-width="1" opacity="1" d="M 79.5 57 L 80 61.5 L 79 61.5 L 79.5 57 Z " /><path fill="rgb(254,253,253)" stroke="rgb(254,253,253)" stroke-width="1" opacity="1" d="M 88.5 60 L 89 63.5 L 88 63.5 L 88.5 60 Z " /><path fill="rgb(254,253,253)" stroke="rgb(254,253,253)" stroke-width="1" opacity="1" d="M 90.5 60 L 91 63.5 L 90 63.5 L 90.5 60 Z " /><path fill="rgb(254,253,253)" stroke="rgb(254,253,253)" stroke-width="1" opacity="1" d="M 125.5 60 L 124.5 62 L 125.5 60 Z " /><path fill="rgb(254,253,253)" stroke="rgb(254,253,253)" stroke-width="1" opacity="1" d="M 76.5 61 L 78 63.5 L 76 64.5 L 78 67.5 L 75.5 68 L 74 66.5 Q 74.8 64.3 72.5 65 L 73.5 63 L 76 64 L 76.5 61 Z " /><path fill="rgb(254,253,253)" stroke="rgb(254,253,253)" stroke-width="1" opacity="1" d="M 93.5 61 L 94 62.5 L 91.5 67 L 92 65.5 L 93.5 61 Z " /><path fill="rgb(254,253,253)" stroke="rgb(254,253,253)" stroke-width="1" opacity="1" d="M 127.5 61 L 128 63.5 L 127 63.5 L 127.5 61 Z " /><path fill="rgb(254,253,253)" stroke="rgb(254,253,253)" stroke-width="1" opacity="1" d="M 78.5 65 Q 80.8 64.3 80 66.5 L 78.5 65 Z " /><path fill="rgb(254,253,253)" stroke="rgb(254,253,253)" stroke-width="1" opacity="1" d="M 125.5 66 Q 128.1 65.2 127 68.5 L 126 68.5 L 125.5 66 Z " /><path fill="rgb(254,253,253)" stroke="rgb(254,253,253)" stroke-width="1" opacity="1" d="M 88.5 71 L 90.5 74 L 89 74 L 89 78 L 91 78.5 L 90 81.5 L 88.5 85 L 88 81.5 L 88 79.5 L 87.5 78 L 84.5 79 L 82.5 76 L 84.5 75 L 84 76.5 Q 83.2 79.1 86.5 78 L 86 76.5 L 86.5 75 L 88 75.5 L 88.5 71 Z " /><path fill="rgb(254,253,253)" stroke="rgb(254,253,253)" stroke-width="1" opacity="1" d="M 74.5 74 L 75.5 78 L 74 78.5 Q 76.2 79.8 73.5 81 L 73 78.5 L 74 76.5 Q 71.8 75.3 74.5 74 Z " /><path fill="rgb(254,253,253)" stroke="rgb(254,253,253)" stroke-width="1" opacity="1" d="M 127.5 79 L 128 81 L 126 80.5 L 127.5 79 Z " /><path fill="rgb(254,253,253)" stroke="rgb(254,253,253)" stroke-width="1" opacity="1" d="M 90.5 84 L 92 87.5 L 90 86.5 L 90.5 84 Z " /><path fill="rgb(254,253,253)" stroke="rgb(254,253,253)" stroke-width="1" opacity="1" d="M 126.5 84 L 128 87 L 126 86.5 L 126.5 84 Z " /><path fill="rgb(254,253,253)" stroke="rgb(254,253,253)" stroke-width="1" opacity="1" d="M 49 88 L 51 88.5 L 51 96 L 49 95.5 L 49 88 Z " /><path fill="rgb(254,253,253)" stroke="rgb(254,253,253)" stroke-width="1" opacity="1" d="M 54.5 88 Q 54.1 95.9 57 100.5 L 56.5 102 Q 58.8 102.8 58 100.5 L 59 100.5 L 56.5 104 L 55 104.5 L 55 111.5 L 57.5 117 L 59 117.5 L 57.5 118 L 51 115.5 L 50 104.5 L 51 104.5 L 51 112 L 54 112 L 53 96.5 L 54.5 88 Z " /><path fill="rgb(254,253,253)" stroke="rgb(254,253,253)" stroke-width="1" opacity="1" d="M 86 88 L 88 88.5 L 86 89.5 L 86 88 Z " /><path fill="rgb(254,253,253)" stroke="rgb(254,253,253)" stroke-width="1" opacity="1" d="M 124.5 88 L 126.5 89 L 128 88.5 Q 124 90.5 128 92.5 L 126.5 96 L 125.5 94 Q 127.8 94.8 127 92.5 L 125.5 93 Q 123.3 93.8 124 91.5 L 125.5 89 L 124.5 88 Z " /><path fill="rgb(254,253,253)" stroke="rgb(254,253,253)" stroke-width="1" opacity="1" d="M 83 89 L 85 89.5 L 83 90.5 L 83 89 Z " /><path fill="rgb(254,253,253)" stroke="rgb(254,253,253)" stroke-width="1" opacity="1" d="M 89.5 89 L 87 92.5 L 87.5 94 L 85.5 93 L 83.5 94 L 82 93.5 L 83 96.5 L 80.5 98 L 80.5 97 L 82 96.5 L 79 95.5 L 81.5 91 L 86.5 92 L 89.5 89 Z " /><path fill="rgb(254,253,253)" stroke="rgb(254,253,253)" stroke-width="1" opacity="1" d="M 122.5 92 L 124 94.5 L 120 96 L 120 94 Q 122.8 95 122.5 92 Z " /><path fill="rgb(254,253,253)" stroke="rgb(254,253,253)" stroke-width="1" opacity="1" d="M 85.5 95 L 84.5 97 L 85.5 95 Z " /><path fill="rgb(254,253,253)" stroke="rgb(254,253,253)" stroke-width="1" opacity="1" d="M 65.5 97 L 66.5 99 L 65.5 97 Z " /><path fill="rgb(254,253,253)" stroke="rgb(254,253,253)" stroke-width="1" opacity="1" d="M 63.5 99 L 62.5 101 L 63.5 99 Z " /><path fill="rgb(254,253,253)" stroke="rgb(254,253,253)" stroke-width="1" opacity="1" d="M 107 110 Q 111.1 108.7 110 112 Q 105.9 113.3 107 110 Z " /><path fill="rgb(254,253,253)" stroke="rgb(254,253,253)" stroke-width="1" opacity="1" d="M 98.5 115 L 101 115.5 L 100.5 117 L 103.5 115 L 102.5 118 Q 104.8 117.3 104 119.5 L 101.5 118 L 98.5 115 Z " /><path fill="rgb(254,253,253)" stroke="rgb(254,253,253)" stroke-width="1" opacity="1" d="M 73.5 116 Q 75.8 115.3 75 117.5 L 73.5 116 Z " /><path fill="rgb(254,253,253)" stroke="rgb(254,253,253)" stroke-width="1" opacity="1" d="M 61.5 117 L 61.5 119 L 63 119.5 L 61.5 120 Q 58.5 118.5 61.5 117 Z " /><path fill="rgb(254,253,253)" stroke="rgb(254,253,253)" stroke-width="1" opacity="1" d="M 69 117 L 72 117.5 L 69.5 119 L 69 117 Z " /><path fill="rgb(254,253,253)" stroke="rgb(254,253,253)" stroke-width="1" opacity="1" d="M 93.5 117 L 94.5 119 L 96 118.5 Q 96.8 120.8 94.5 120 L 93.5 117 Z " /><path fill="rgb(254,253,253)" stroke="rgb(254,253,253)" stroke-width="1" opacity="1" d="M 91.5 118 L 92 120 L 90 119.5 L 91.5 118 Z " /><path fill="rgb(254,253,253)" stroke="rgb(254,253,253)" stroke-width="1" opacity="1" d="M 71.5 119 L 74 119.5 L 71.5 120 L 71.5 119 Z " /><path fill="rgb(254,253,253)" stroke="rgb(254,253,253)" stroke-width="1" opacity="1" d="M 84.5 120 L 88 121.5 L 87.5 123 L 84.5 120 Z " /><path fill="rgb(254,253,253)" stroke="rgb(254,253,253)" stroke-width="1" opacity="1" d="M 81 122 L 85 123.5 L 80.5 125 L 81 123.5 L 81 122 Z " /><path fill="rgb(254,253,253)" stroke="rgb(254,253,253)" stroke-width="1" opacity="1" d="M 86.5 125 L 88 127.5 L 86.5 127 L 85 126.5 L 86.5 125 Z " /><path fill="rgb(254,253,253)" stroke="rgb(254,253,253)" stroke-width="1" opacity="1" d="M 80.5 126 Q 85.3 124.7 84 128 Q 79.8 128 80.5 126 Z " /></svg>